<?xml version="1.0" encoding="UTF-8"?>
<svg version="1.1" xmlns="http://www.w3.org/2000/svg" width="325" height="371">
<path d="M0 0 C2.2170867 1.23720005 2.2170867 1.23720005 5.1640625 1.0234375 C7.87087709 3.00210314 9.87721906 4.56592339 10.54882812 7.97851562 C10.62127316 10.26156903 10.54700277 12.4932178 10.4140625 14.7734375 C10.36795274 16.38663203 10.32494587 17.99991846 10.28515625 19.61328125 C10.26050293 20.37882324 10.23584961 21.14436523 10.21044922 21.93310547 C10.07443255 28.06244628 10.6683622 32.85588053 14.1640625 38.0234375 C14.1640625 39.0134375 14.1640625 40.0034375 14.1640625 41.0234375 C12.8440625 41.3534375 11.5240625 41.6834375 10.1640625 42.0234375 C10.009375 42.9515625 10.009375 42.9515625 9.8515625 43.8984375 C9.1640625 46.0234375 9.1640625 46.0234375 6.1640625 48.0234375 C6.3496875 48.5390625 6.5353125 49.0546875 6.7265625 49.5859375 C7.33250972 52.96192916 6.90476902 55.69025816 6.1640625 59.0234375 C2.71955513 61.31977574 0.22593967 61.56360235 -3.8359375 62.0234375 C-3.2171875 62.7865625 -2.5984375 63.5496875 -1.9609375 64.3359375 C6.11142687 76.55898568 1.89404009 94.09933742 -0.765625 107.36328125 C-1.49149913 110.74735187 -2.37375362 113.86854526 -3.8359375 117.0234375 C-0.5359375 117.3534375 2.7640625 117.6834375 6.1640625 118.0234375 C7.0303125 116.7034375 7.8965625 115.3834375 8.7890625 114.0234375 C11.75692476 109.56457777 14.90122044 105.26976033 18.1640625 101.0234375 C19.4840625 101.3534375 20.8040625 101.6834375 22.1640625 102.0234375 C22.1640625 102.6834375 22.1640625 103.3434375 22.1640625 104.0234375 C23.6490625 103.5284375 23.6490625 103.5284375 25.1640625 103.0234375 C25.50179688 103.56613281 25.83953125 104.10882813 26.1875 104.66796875 C26.63351562 105.38339844 27.07953125 106.09882812 27.5390625 106.8359375 C27.97992188 107.54363281 28.42078125 108.25132813 28.875 108.98046875 C29.94594726 110.67775789 31.05082489 112.35358108 32.1640625 114.0234375 C33.56645157 118.97304598 33.56645157 118.97304598 33.1640625 122.0234375 C29.08803059 128.18088292 23.06631371 130.76955852 16.3515625 133.1484375 C14.57298391 133.81572832 12.7956212 134.48626951 11.01953125 135.16015625 C10.17825684 135.47645996 9.33698242 135.79276367 8.47021484 136.11865234 C4.85870533 137.5355753 1.44564279 139.26596289 -1.9609375 141.11328125 C-3.8359375 142.0234375 -3.8359375 142.0234375 -5.96484375 142.3046875 C-8.10390738 142.87611063 -8.10390738 142.87611063 -8.92578125 145.40234375 C-9.20550781 146.45292969 -9.48523438 147.50351563 -9.7734375 148.5859375 C-10.09828125 149.75769531 -10.423125 150.92945313 -10.7578125 152.13671875 C-11.01401367 153.081521 -11.01401367 153.081521 -11.27539062 154.04541016 C-12.05364919 156.79168668 -12.95407371 159.49310269 -13.84912109 162.203125 C-14.9095621 165.45893228 -15.87862183 168.735722 -16.8359375 172.0234375 C-17.10664063 172.93738281 -17.37734375 173.85132813 -17.65625 174.79296875 C-18.31752188 177.33994876 -18.31752188 177.33994876 -17.8359375 181.0234375 C-16.41953582 182.66880953 -16.41953582 182.66880953 -14.47265625 184.12890625 C-9.13690593 188.56053186 -4.25235614 193.3852336 0.6640625 198.2734375 C2.01177734 199.59021484 2.01177734 199.59021484 3.38671875 200.93359375 C8.63024219 206.14658721 13.20348582 211.47442372 17.4230957 217.54956055 C19.13783508 219.98616888 20.95875656 222.28609666 22.8515625 224.5859375 C27.88540299 231.03987519 32.17940343 237.56226308 31.1640625 246.0234375 C30.99447021 246.64259033 30.82487793 247.26174316 30.65014648 247.8996582 C28.90700696 255.51571582 30.38710094 263.73800188 31.6015625 271.3359375 C32.76599065 279.06845783 33.39951038 286.64621446 33.6015625 294.4609375 C33.87141591 303.55027306 35.26324951 311.39733571 38.1640625 320.0234375 C38.42445313 320.88839844 38.68484375 321.75335938 38.953125 322.64453125 C39.95759295 325.74072093 40.61752908 327.64867173 43.3515625 329.5234375 C43.9496875 329.6884375 44.5478125 329.8534375 45.1640625 330.0234375 C45.1640625 330.6834375 45.1640625 331.3434375 45.1640625 332.0234375 C46.80375 332.3946875 46.80375 332.3946875 48.4765625 332.7734375 C53.02968088 334.31686746 54.10376598 335.90284446 56.1640625 340.0234375 C61.92099605 342.47578684 67.53563024 342.34896094 73.703125 342.484375 C77.1640625 343.0234375 77.1640625 343.0234375 79.6875 344.75 C81.1640625 347.0234375 81.1640625 347.0234375 81.30078125 349.546875 C78.83602715 354.91682037 71.48990966 357.0143803 66.1640625 359.0234375 C54.88525995 362.34923825 43.47298303 363.08276078 31.7890625 363.2734375 C31.01530273 363.29494873 30.24154297 363.31645996 29.44433594 363.33862305 C26.04847654 363.35822877 23.40091046 363.09983017 20.1484375 362.05078125 C18.1640625 360.0234375 18.1640625 360.0234375 17.640625 356.07421875 C17.66454458 354.49419788 17.71505188 352.91440528 17.7890625 351.3359375 C17.80324219 350.55798828 17.81742188 349.78003906 17.83203125 348.97851562 C17.92633792 345.20939219 18.20114877 341.53572955 18.7421875 337.8046875 C19.92218032 327.22845555 15.05360537 316.2390109 11.7890625 306.3359375 C11.41410645 305.19600342 11.03915039 304.05606934 10.65283203 302.8815918 C8.51275587 296.53992774 6.12593697 290.46854712 3.19287109 284.44995117 C1.32411494 280.04236516 1.06467521 276.23856374 1.34765625 271.49609375 C1.38697266 270.45646484 1.42628906 269.41683594 1.46679688 268.34570312 C1.55653324 266.17512342 1.6736782 264.00550134 1.81835938 261.83789062 C2.10092542 256.03379942 2.10092542 256.03379942 -0.43481445 251.04516602 C-2.49456464 249.46091266 -4.53107441 248.21875571 -6.8359375 247.0234375 C-8.40021484 246.13591797 -8.40021484 246.13591797 -9.99609375 245.23046875 C-10.95386719 244.77027344 -11.91164062 244.31007812 -12.8984375 243.8359375 C-14.44337891 243.08570313 -14.44337891 243.08570313 -16.01953125 242.3203125 C-18.13828179 241.34468812 -20.29261922 240.44578785 -22.4609375 239.5859375 C-26.43203754 237.74746526 -29.7725542 235.40160984 -33.30859375 232.83984375 C-36.10583733 230.82946003 -38.96163493 228.92156184 -41.8359375 227.0234375 C-42.27421875 227.72726563 -42.7125 228.43109375 -43.1640625 229.15625 C-50.82849076 241.08907937 -60.6819937 255.05401712 -72.69921875 262.890625 C-75.45978156 264.7676702 -77.78609907 266.75836684 -80.17089844 269.08496094 C-90.03963416 278.69279155 -90.03963416 278.69279155 -96.8359375 280.0234375 C-99.26223312 279.95258526 -101.68669311 279.80126099 -104.10546875 279.59765625 C-109.73495755 279.17317325 -115.31150341 278.94044335 -120.95703125 278.99609375 C-121.96768143 279.00545959 -121.96768143 279.00545959 -122.99874878 279.01501465 C-124.38101366 279.02948627 -125.76326741 279.04506036 -127.14550781 279.06170654 C-138.2858813 279.18856314 -149.23637267 279.0025599 -160.3359375 277.8984375 C-172.19553612 276.73188825 -183.17891749 277.56100498 -194.8359375 280.0234375 C-194.8359375 281.0134375 -194.8359375 282.0034375 -194.8359375 283.0234375 C-195.4546875 283.1059375 -196.0734375 283.1884375 -196.7109375 283.2734375 C-197.4121875 283.5209375 -198.1134375 283.7684375 -198.8359375 284.0234375 C-199.0834375 284.6421875 -199.3309375 285.2609375 -199.5859375 285.8984375 C-201.59596263 289.31548023 -205.1348378 290.00563508 -208.8359375 291.0234375 C-209.4959375 291.0234375 -210.1559375 291.0234375 -210.8359375 291.0234375 C-209.8359375 288.0234375 -209.8359375 288.0234375 -207.7734375 286.8359375 C-207.1340625 286.5678125 -206.4946875 286.2996875 -205.8359375 286.0234375 C-206.42761719 286.27738281 -207.01929688 286.53132813 -207.62890625 286.79296875 C-210.04329384 287.84458618 -212.43994025 288.93066848 -214.8359375 290.0234375 C-215.7228125 290.4153125 -216.6096875 290.8071875 -217.5234375 291.2109375 C-220.64056004 293.6540876 -222.42390682 296.62257554 -224.50390625 299.96484375 C-225.8359375 302.0234375 -225.8359375 302.0234375 -227.8359375 304.0234375 C-231.4609375 304.1484375 -231.4609375 304.1484375 -234.8359375 304.0234375 C-236.83695952 300.02139345 -236.40920019 295.07651784 -235.22705078 290.84277344 C-234.36764938 288.64567736 -233.41650493 286.52660774 -232.3984375 284.3984375 C-232.04080322 283.62282471 -231.68316895 282.84721191 -231.31469727 282.0480957 C-228.28707114 275.63414484 -224.76465114 269.59226247 -221.01171875 263.58203125 C-218.20244322 259.06405959 -215.77892352 254.36199006 -213.34375 249.6328125 C-212.00566633 247.31716512 -210.9223888 245.67568137 -208.8359375 244.0234375 C-204.31881011 243.89796174 -201.89406394 246.46655297 -198.7421875 249.328125 C-195.11535707 252.55362583 -191.19138505 255.84571372 -186.8359375 258.0234375 C-182.42648852 257.35312265 -178.08149916 256.34470329 -173.72729492 255.3828125 C-171.57264347 254.90925224 -169.41473095 254.45387202 -167.25585938 254 C-160.53805948 252.55052586 -154.2162964 250.91280593 -147.828125 248.3125 C-142.65654234 246.21531637 -138.84722188 245.39267423 -133.2734375 245.5234375 C-132.5616333 245.53753662 -131.8498291 245.55163574 -131.11645508 245.56616211 C-125.61083826 245.76489178 -120.51320395 246.79581416 -115.25390625 248.46484375 C-112.59855792 249.0782764 -111.33703853 249.06469086 -108.8359375 248.0234375 C-107.17640542 246.73476204 -107.17640542 246.73476204 -105.7734375 245.0234375 C-105.28746094 244.4871875 -104.80148438 243.9509375 -104.30078125 243.3984375 C-102.52034495 240.51175678 -101.67308119 237.6175676 -100.65551758 234.39599609 C-99.37063647 230.67646239 -97.57917868 227.29059073 -95.7109375 223.8359375 C-95.32566895 223.10036621 -94.94040039 222.36479492 -94.54345703 221.60693359 C-92.63773699 218.04131829 -90.67508369 214.68990915 -88.2109375 211.48046875 C-82.31241537 203.71311914 -81.22862571 198.74248585 -82.29125977 189.00732422 C-83.23036916 180.15440183 -81.22950515 172.67159201 -76.5234375 165.0859375 C-74.55193545 162.13101881 -74.55193545 162.13101881 -74.9609375 158.7734375 C-75.75134338 155.85099564 -75.75134338 155.85099564 -77.8359375 153.0234375 C-77.85575473 151.39842479 -77.82886232 149.77262564 -77.7734375 148.1484375 C-78.33029363 140.47394753 -83.36284579 135.93547986 -88.36816406 130.60791016 C-98.05600569 120.149811 -107.39028995 108.40010565 -108.3984375 93.5859375 C-107.3692039 87.06745804 -101.98641275 84.31295777 -97.00830078 80.59326172 C-93.69320341 78.19765865 -90.26552921 76.02529662 -86.7734375 73.8984375 C-85.6428894 73.20826538 -85.6428894 73.20826538 -84.48950195 72.50415039 C-73.89276487 66.13798066 -62.74987134 59.50218754 -51.21411133 55.00024414 C-48.63327072 54.04238054 -48.63327072 54.04238054 -45.8984375 51.9609375 C-42.69275544 49.93285293 -40.53746167 49.52280863 -36.8359375 49.0234375 C-36.73795657 40.83658688 -36.80384268 32.74990198 -37.4609375 24.5859375 C-38.08023712 15.42209813 -37.39136969 9.48854951 -31.8359375 2.0234375 C-31.5678125 1.3015625 -31.2996875 0.5796875 -31.0234375 -0.1640625 C-28.60777178 -3.85113123 -24.01245162 -4.64406938 -19.9609375 -5.7890625 C-12.47199754 -6.2383989 -6.46432265 -3.55024704 0 0 Z M-79.8359375 98.0234375 C-78.32230595 109.88021796 -75.05672626 119.76111719 -68.8359375 130.0234375 C-68.1759375 130.3534375 -67.5159375 130.6834375 -66.8359375 131.0234375 C-66.908125 130.31703125 -66.9803125 129.610625 -67.0546875 128.8828125 C-67.98575079 118.58939057 -67.92860303 108.35049583 -67.8359375 98.0234375 C-71.7959375 98.0234375 -75.7559375 98.0234375 -79.8359375 98.0234375 Z " fill="#FCBD5A" transform="translate(239.8359375,6.9765625)"/>
<path d="M0 0 C0 1.65 0 3.3 0 5 C-0.9075 5.2475 -1.815 5.495 -2.75 5.75 C-6.10351489 7.03981342 -7.67708236 8.31971042 -10 11 C-10.66 10.67 -11.32 10.34 -12 10 C-11.360625 9.05125 -10.72125 8.1025 -10.0625 7.125 C-8.07379437 4.24712173 -8.07379437 4.24712173 -7 2 C-4.37418862 0.42451317 -3.12900213 0 0 0 Z " fill="#F7C271" transform="translate(217,3)"/>
<path d="M0 0 C0.99 0 1.98 0 3 0 C3.66 0.99 4.32 1.98 5 3 C5.99 2.67 6.98 2.34 8 2 C8.13277344 2.56203125 8.26554688 3.1240625 8.40234375 3.703125 C9.02437111 6.09366153 9.77115041 8.41035775 10.5625 10.75 C10.83191406 11.54921875 11.10132813 12.3484375 11.37890625 13.171875 C11.58386719 13.77515625 11.78882813 14.3784375 12 15 C7.47619711 10.75036698 3.61682339 6.04479113 0 1 C0 0.67 0 0.34 0 0 Z " fill="#F4BE6C" transform="translate(148,132)"/>
<path d="M0 0 C0.33 0 0.66 0 1 0 C0.58789699 5.25431335 -0.2354518 8.2354518 -4 12 C-4.99 12.33 -5.98 12.66 -7 13 C-5.37621488 8.27626146 -2.89006982 4.05818166 0 0 Z " fill="#F2C071" transform="translate(20,269)"/>
<path d="M0 0 C2.00720923 0.28674418 4.0085944 0.61866701 6 1 C3 3 3 3 1 3 C1 3.99 1 4.98 1 6 C0.401875 6.0825 -0.19625 6.165 -0.8125 6.25 C-3.5966296 7.20455872 -4.43311142 8.57132271 -6 11 C-6 9.02 -6 7.04 -6 5 C-4.02 5 -2.04 5 0 5 C-0.2784375 4.0409375 -0.2784375 4.0409375 -0.5625 3.0625 C-0.706875 2.381875 -0.85125 1.70125 -1 1 C-0.67 0.67 -0.34 0.34 0 0 Z " fill="#F5C564" transform="translate(44,284)"/>
<path d="M0 0 C-0.33 0.99 -0.66 1.98 -1 3 C-1.825 3.309375 -2.65 3.61875 -3.5 3.9375 C-4.325 4.288125 -5.15 4.63875 -6 5 C-6.88693303 7.04105639 -6.88693303 7.04105639 -7 9 C-9.64 9 -12.28 9 -15 9 C-4.33333333 0 -4.33333333 0 0 0 Z " fill="#F5BF6B" transform="translate(165,75)"/>
<path d="M0 0 C0.66 0 1.32 0 2 0 C2.33 2.97 2.66 5.94 3 9 C3.99 9.33 4.98 9.66 6 10 C5.67 12.31 5.34 14.62 5 17 C3.10546252 14.15819378 1.99807186 11.68435185 0.8125 8.5 C0.44769531 7.5409375 0.08289063 6.581875 -0.29296875 5.59375 C-1 3 -1 3 0 0 Z " fill="#F2BE6C" transform="translate(248,297)"/>
<path d="M0 0 C2 1 4 2 6 3 C6 4.32 6 5.64 6 7 C6.66 7.33 7.32 7.66 8 8 C7.01 9.98 6.02 11.96 5 14 C4.34 13.67 3.68 13.34 3 13 C3.03480469 12.39671875 3.06960937 11.7934375 3.10546875 11.171875 C3.3514449 6.07474512 3.3514449 6.07474512 1.5 1.4375 C1.005 0.963125 0.51 0.48875 0 0 Z " fill="#F5C370" transform="translate(238,256)"/>
<path d="M0 0 C4.91935902 4.11619836 9.52647956 8.40410362 14 13 C9.40174827 13 7.19709356 10.08810173 4 7 C0 2.48717949 0 2.48717949 0 0 Z " fill="#EEC074" transform="translate(226,192)"/>
<path d="M0 0 C1.32 0.33 2.64 0.66 4 1 C4 4 4 4 2.625 5.6875 C1 7 1 7 -1 7 C-1 7.99 -1 8.98 -1 10 C-1.66 10 -2.32 10 -3 10 C-1.125 2.25 -1.125 2.25 0 0 Z " fill="#F7C069" transform="translate(162,174)"/>
<path d="M0 0 C1.65 0 3.3 0 5 0 C2.14723863 2.93200474 -0.65079784 5.64315404 -4 8 C-4 7.01 -4 6.02 -4 5 C-3.34 5 -2.68 5 -2 5 C-2.33 4.01 -2.66 3.02 -3 2 C-2.01 2 -1.02 2 0 2 C0 1.34 0 0.68 0 0 Z " fill="#F6BD69" transform="translate(158,272)"/>
<path d="M0 0 C0.99 0.33 1.98 0.66 3 1 C0.03 4.3 -2.94 7.6 -6 11 C-6.33 10.01 -6.66 9.02 -7 8 C-6.34 8 -5.68 8 -5 8 C-4.896875 7.360625 -4.79375 6.72125 -4.6875 6.0625 C-4.460625 5.381875 -4.23375 4.70125 -4 4 C-3.01 3.67 -2.02 3.34 -1 3 C-0.67 2.01 -0.34 1.02 0 0 Z " fill="#F2C173" transform="translate(180,253)"/>
<path d="M0 0 C1.75 0.8125 1.75 0.8125 2.75 2.8125 C-0.55 3.4725 -3.85 4.1325 -7.25 4.8125 C-7.25 4.1525 -7.25 3.4925 -7.25 2.8125 C-3.15 -0.2625 -3.15 -0.2625 0 0 Z " fill="#F6C165" transform="translate(306.25,362.1875)"/>
<path d="M0 0 C0.99 0.99 1.98 1.98 3 3 C0.03 5.475 0.03 5.475 -3 8 C-3.1875 5.125 -3.1875 5.125 -3 2 C-2.01 1.34 -1.02 0.68 0 0 Z " fill="#F5BE66" transform="translate(268,128)"/>
<path d="M0 0 C0.66 0.33 1.32 0.66 2 1 C1.8864371 2.64666203 1.75882619 4.29236082 1.625 5.9375 C1.52058594 7.31228516 1.52058594 7.31228516 1.4140625 8.71484375 C1.27742187 9.46894531 1.14078125 10.22304687 1 11 C0.01 11.495 0.01 11.495 -1 12 C-1.33 10.68 -1.66 9.36 -2 8 C-1.34 8 -0.68 8 0 8 C-0.66 6.02 -1.32 4.04 -2 2 C-1.34 1.34 -0.68 0.68 0 0 Z " fill="#F7BE6F" transform="translate(245,55)"/>
<path d="M0 0 C2.31 0.33 4.62 0.66 7 1 C7.66 2.98 8.32 4.96 9 7 C5.18315774 5.44499019 2.80804268 2.96404505 0 0 Z " fill="#F4BD69" transform="translate(199,233)"/>
<path d="M0 0 C1.13200586 3.39601757 1.14423449 4.64902756 0 8 C-2.5625 10.3125 -2.5625 10.3125 -5 12 C-3.41037341 7.96479403 -1.71767682 3.98188718 0 0 Z " fill="#F4BE72" transform="translate(26,257)"/>
<path d="M0 0 C0.33 0 0.66 0 1 0 C1.33 2.97 1.66 5.94 2 9 C1.67 8.34 1.34 7.68 1 7 C-0.32 7.33 -1.64 7.66 -3 8 C-2.01 5.36 -1.02 2.72 0 0 Z " fill="#F5C16D" transform="translate(10,286)"/>
<path d="M0 0 C0.33 0.66 0.66 1.32 1 2 C-0.20850753 5.07620099 -1.52221785 8.0444357 -3 11 C-3.66 11 -4.32 11 -5 11 C-3.77472971 6.94718288 -2.30119506 3.55639236 0 0 Z " fill="#ECBC70" transform="translate(147,226)"/>
<path d="M0 0 C1.15957207 3.47871621 0.77456651 4.34219645 -0.4375 7.6875 C-0.86869141 8.89986328 -0.86869141 8.89986328 -1.30859375 10.13671875 C-1.53675781 10.75160156 -1.76492187 11.36648437 -2 12 C-2.33 12 -2.66 12 -3 12 C-3.33 10.02 -3.66 8.04 -4 6 C-3.01 5.67 -2.02 5.34 -1 5 C-0.67 3.35 -0.34 1.7 0 0 Z " fill="#F2C172" transform="translate(238,112)"/>
<path d="M0 0 C-0.33 0.66 -0.66 1.32 -1 2 C-0.34 2 0.32 2 1 2 C1 2.66 1 3.32 1 4 C-2.26954202 3.43628586 -3.82575883 2.50037734 -6 0 C-2.25 -1.125 -2.25 -1.125 0 0 Z " fill="#F1BD69" transform="translate(219,243)"/>
<path d="M0 0 C0 4.01474237 -1.66781767 5.81975137 -4 9 C-4.33 9 -4.66 9 -5 9 C-5 7.35 -5 5.7 -5 4 C-4.01 4 -3.02 4 -2 4 C-1.34 2.68 -0.68 1.36 0 0 Z " fill="#F1C277" transform="translate(194,237)"/>
<path d="M0 0 C2.99324263 1.0975223 3.84610901 1.67682892 5.25 4.625 C5.4975 5.40875 5.745 6.1925 6 7 C4.125 6.875 4.125 6.875 2 6 C0.75 2.9375 0.75 2.9375 0 0 Z " fill="#F5CE70" transform="translate(234,69)"/>
<path d="M0 0 C0.33 0.66 0.66 1.32 1 2 C1.99 2.33 2.98 2.66 4 3 C4 3.33 4 3.66 4 4 C1.69 4 -0.62 4 -3 4 C-2.67 3.01 -2.34 2.02 -2 1 C-1.34 0.67 -0.68 0.34 0 0 Z " fill="#FCC169" transform="translate(145,281)"/>
<path d="M0 0 C0.66 0.66 1.32 1.32 2 2 C2.66 1.67 3.32 1.34 4 1 C3.67 2.65 3.34 4.3 3 6 C1.68 5.34 0.36 4.68 -1 4 C-0.67 2.68 -0.34 1.36 0 0 Z " fill="#F9B666" transform="translate(170,135)"/>
</svg>
